<svg width="106" height="105" viewBox="0 0 106 105" fill="none" xmlns="http://www.w3.org/2000/svg">
<g id="Group 3">
<g id="Vector">
<path d="M13 72.0001V67.8001H15.3C16.7667 67.8001 18.1 67.6668 19.3 67.4001C20.5667 67.0668 21.5667 66.4334 22.3 65.5001C23.1 64.5001 23.5 63.0334 23.5 61.1001V5.6001H13.9C10.9667 5.6001 8.93333 6.43343 7.8 8.1001C6.66667 9.7001 5.96667 11.6001 5.7 13.8001L5.2 18.1001H0L0.5 0.600098H56.8L57.3 18.1001H52.1L51.6 13.8001C51.3333 11.6001 50.6333 9.7001 49.5 8.1001C48.3667 6.43343 46.3 5.6001 43.3 5.6001H33.6V60.6001C33.6 62.6668 33.9667 64.2334 34.7 65.3001C35.4333 66.3001 36.4333 66.9668 37.7 67.3001C38.9667 67.6334 40.3333 67.8001 41.8 67.8001H44.1V72.0001H13Z" fill="white"/>
<path d="M52.8 105V100.8H54.1C55.6333 100.8 57 100.633 58.2 100.3C59.4667 99.9668 60.4667 99.3001 61.2 98.3001C61.9333 97.2334 62.3 95.6668 62.3 93.6001V44.6001C62.3 42.6001 61.9 41.1334 61.1 40.2001C60.3667 39.2001 59.3667 38.5668 58.1 38.3001C56.9 37.9668 55.5667 37.8001 54.1 37.8001H52.8V33.6001H80.9C89.3 33.6001 95.5 35.4668 99.5 39.2001C103.5 42.8668 105.5 47.9668 105.5 54.5001C105.5 57.5001 105.033 60.3668 104.1 63.1001C103.167 65.7668 101.633 68.1668 99.5 70.3001C97.4333 72.4334 94.6667 74.1334 91.2 75.4001C87.8 76.6001 83.6333 77.2001 78.7 77.2001H72.4V94.1001C72.4 96.0334 72.7667 97.5001 73.5 98.5001C74.3 99.4334 75.3 100.067 76.5 100.4C77.7667 100.667 79.1333 100.8 80.6 100.8H83.9V105H52.8ZM77.7 72.5001C80.7 72.5001 83.2667 72.2001 85.4 71.6001C87.6 70.9334 89.3667 69.9001 90.7 68.5001C92.1 67.1001 93.1 65.3001 93.7 63.1001C94.3667 60.8334 94.7 58.1001 94.7 54.9001C94.7 49.3001 93.5333 45.1668 91.2 42.5001C88.8667 39.7668 84.8667 38.4001 79.2 38.4001H72.4V72.5001H77.7Z" fill="white"/>
</g>
</g>
</svg>
